<svg width="100" height="100" viewBox="0 0 100 100" fill="none" xmlns="http://www.w3.org/2000/svg">
<g id="Frame 5">
<g id="icon ">
<mask id="mask0_843_2925" style="mask-type:alpha" maskUnits="userSpaceOnUse" x="0" y="0" width="100" height="100">
<circle id="Ellipse 13" cx="50" cy="50" r="50" fill="#56A7DE"/>
</mask>
<g mask="url(#mask0_843_2925)">
<circle id="Ellipse 14" cx="50" cy="50" r="50" fill="#56A7DE" fill-opacity="0.1"/>
<path id="Vector" d="M48.7321 24.0028C48.4757 24.019 48.2323 24.1201 48.0411 24.29C47.85 24.4598 47.7222 24.6884 47.6786 24.9389C46.2336 33.2168 43.0734 36.5057 40.0357 39.651C36.998 42.7963 34 45.9552 34 52.8443C34 56.254 35.543 59.1368 37.8036 61.3396C40.0641 63.5423 43.0311 65.128 46.0714 66.1259C46.3077 66.2028 46.5628 66.2015 46.7982 66.122C47.0336 66.0425 47.2363 65.8893 47.3757 65.6855C47.515 65.4818 47.5834 65.2387 47.5704 64.993C47.5573 64.7474 47.4637 64.5126 47.3036 64.3244C44.4402 60.9306 43.7226 58.5819 43.7857 56.7122C43.8359 55.2241 44.4629 53.9071 45.1607 52.5264C46.4796 53.2791 47.7587 53.6835 48.875 53.3565C50.3398 52.9273 51.2449 51.6976 51.8214 50.407C52.4265 49.0526 52.7278 47.5808 52.875 46.2388C56.0452 49.9108 57.2169 53.0171 57.1786 55.6348C57.1246 59.3166 54.8664 62.3296 52.7857 64.2184C52.6085 64.383 52.4889 64.5993 52.4445 64.8357C52.4 65.0722 52.433 65.3165 52.5385 65.5331C52.6441 65.7498 52.8167 65.9275 53.0314 66.0404C53.246 66.1534 53.4915 66.1957 53.7321 66.1612C60.1395 65.2743 66 59.7731 66 52.756C66 47.938 65.1459 43.5955 62.6429 39.1035C60.1398 34.6115 56.0365 29.9699 49.5714 24.2854C49.4576 24.1854 49.3247 24.1088 49.1806 24.0603C49.0365 24.0118 48.884 23.9922 48.7321 24.0028ZM49.4286 27.2525C54.9305 32.2417 58.5138 36.3778 60.6429 40.1985C62.956 44.3496 63.7143 48.1938 63.7143 52.756C63.7143 57.1672 60.7498 60.931 56.9821 62.7878C58.3347 60.8466 59.4229 58.4912 59.4643 55.6702C59.5208 51.8132 57.6308 47.4349 52.5893 42.5299C52.4205 42.36 52.2017 42.2472 51.9642 42.2076C51.7267 42.168 51.4826 42.2036 51.2667 42.3093C51.0509 42.4151 50.8744 42.5856 50.7623 42.7964C50.6503 43.0073 50.6085 43.2478 50.6429 43.4836C50.7494 44.2787 50.5994 47.5471 49.7321 49.4886C49.2985 50.4593 48.7618 51.0289 48.2321 51.1841C47.7024 51.3393 46.8404 51.2346 45.375 50.0714C45.2409 49.9639 45.084 49.8879 44.916 49.8489C44.748 49.81 44.5732 49.8092 44.4049 49.8465C44.2365 49.8839 44.0789 49.9585 43.9438 50.0648C43.8087 50.171 43.6997 50.3061 43.625 50.46C42.7563 52.1759 41.5855 54.1089 41.5 56.6416C41.4428 58.3374 41.9643 60.2461 43.1964 62.3993C41.7869 61.643 40.4752 60.7696 39.4107 59.7323C37.4795 57.8505 36.2857 55.5911 36.2857 52.8443C36.2857 46.5605 38.6427 44.3672 41.6964 41.2053C44.4931 38.3094 47.7183 34.552 49.4286 27.2525ZM43.0714 69.2167C42.7683 69.2307 42.4833 69.3633 42.279 69.5852C42.0747 69.8071 41.9679 70.1002 41.9821 70.4C41.9964 70.6998 42.1304 70.9817 42.3548 71.1838C42.5791 71.3858 42.8755 71.4914 43.1786 71.4774H56.375C56.5264 71.4795 56.6768 71.4518 56.8173 71.3959C56.9579 71.3401 57.0858 71.2572 57.1936 71.152C57.3015 71.0468 57.3871 70.9215 57.4456 70.7833C57.504 70.6451 57.5341 70.4968 57.5341 70.347C57.5341 70.1972 57.504 70.0489 57.4456 69.9107C57.3871 69.7725 57.3015 69.6472 57.1936 69.542C57.0858 69.4369 56.9579 69.3539 56.8173 69.2981C56.6768 69.2422 56.5264 69.2145 56.375 69.2167H43.1786C43.1429 69.215 43.1071 69.215 43.0714 69.2167ZM39.3214 73.738C39.1713 73.745 39.0241 73.7811 38.8881 73.8443C38.7521 73.9075 38.63 73.9966 38.5288 74.1065C38.4277 74.2164 38.3494 74.3449 38.2984 74.4847C38.2475 74.6246 38.2249 74.7729 38.2319 74.9214C38.239 75.0698 38.2755 75.2155 38.3394 75.35C38.4034 75.4845 38.4935 75.6052 38.6046 75.7052C38.7157 75.8053 38.8457 75.8827 38.9871 75.933C39.1284 75.9834 39.2785 76.0057 39.4286 75.9987H60.1071C60.2586 76.0009 60.4089 75.9732 60.5495 75.9173C60.69 75.8615 60.8179 75.7786 60.9258 75.6734C61.0336 75.5682 61.1193 75.4429 61.1777 75.3047C61.2362 75.1665 61.2663 75.0182 61.2663 74.8684C61.2663 74.7186 61.2362 74.5703 61.1777 74.4321C61.1193 74.2939 61.0336 74.1686 60.9258 74.0634C60.8179 73.9582 60.69 73.8753 60.5495 73.8195C60.4089 73.7636 60.2586 73.7359 60.1071 73.738H39.4286C39.3929 73.7364 39.3571 73.7364 39.3214 73.738Z" fill="#133240"/>
</g>
</g>
</g>
</svg>
