<svg width="100" height="100" viewBox="0 0 100 100" fill="none" xmlns="http://www.w3.org/2000/svg">
<g id="Frame 4">
<g id="icon ">
<mask id="mask0_843_2890" style="mask-type:alpha" maskUnits="userSpaceOnUse" x="0" y="0" width="100" height="100">
<circle id="Ellipse 13" cx="50" cy="50" r="50" fill="#56A7DE"/>
</mask>
<g mask="url(#mask0_843_2890)">
<circle id="Ellipse 14" cx="50" cy="50" r="50" fill="#56A7DE" fill-opacity="0.1"/>
<g id="Group 1000010480">
<path id="Vector" d="M50.0036 69.388C50.9496 69.3853 51.8778 69.2046 52.695 68.8641C53.5122 68.5236 54.1895 68.0353 54.6588 67.4484C55.0968 66.9202 55.3294 66.3179 55.3324 65.704C55.3355 65.09 55.1089 64.4866 54.6762 63.9562C54.6616 63.9386 54.6462 63.9214 54.6296 63.9047L50.7596 60.0708C50.6719 59.9875 50.5574 59.9206 50.4258 59.8757C50.2942 59.8308 50.1494 59.8092 50.0036 59.8129C49.858 59.8092 49.7133 59.8307 49.5817 59.8755C49.4502 59.9203 49.3357 59.987 49.2479 60.0702L45.3778 63.9026C45.3602 63.9202 45.3439 63.9334 45.3287 63.952C44.8984 64.472 44.6716 65.065 44.6719 65.6691C44.6719 67.6859 47.1135 69.388 50.0036 69.388ZM46.9172 64.642L50.0025 61.579L53.0904 64.6538C53.3494 64.98 53.4817 65.3497 53.4735 65.7247C53.4653 66.0997 53.317 66.4663 53.0439 66.7866C52.738 67.1706 52.2959 67.4902 51.7622 67.7133C51.2285 67.9364 50.6219 68.055 50.0036 68.0574C48.1553 68.0574 46.5339 66.9402 46.5339 65.6666C46.5347 65.3072 46.6668 64.9541 46.9172 64.6424V64.642Z" fill="#133240"/>
<path id="Vector_2" d="M49.767 67.484C50.5622 67.4846 51.3253 67.2596 51.8888 66.8586C52.4522 66.4576 52.7701 65.9133 52.7727 65.345C52.7727 65.1686 52.6746 64.9993 52.5 64.8746C52.3254 64.7498 52.0885 64.6797 51.8416 64.6797C51.5947 64.6797 51.3579 64.7498 51.1833 64.8746C51.0087 64.9993 50.9106 65.1686 50.9106 65.345C50.9086 65.5605 50.7871 65.7666 50.5727 65.9182C50.3583 66.0697 50.0685 66.1543 49.767 66.1534C49.52 66.1534 49.2832 66.2235 49.1086 66.3482C48.934 66.473 48.8359 66.6422 48.8359 66.8187C48.8359 66.9952 48.934 67.1644 49.1086 67.2892C49.2832 67.4139 49.52 67.484 49.767 67.484Z" fill="#133240"/>
<path id="Vector_3" d="M38.5183 68.7611V61.5989C38.5183 61.4225 38.4202 61.2532 38.2456 61.1285C38.071 61.0037 37.8342 60.9336 37.5873 60.9336C37.3404 60.9336 37.1035 61.0037 36.9289 61.1285C36.7543 61.2532 36.6562 61.4225 36.6562 61.5989V68.7611C36.6562 68.9376 36.7543 69.1068 36.9289 69.2316C37.1035 69.3563 37.3404 69.4264 37.5873 69.4264C37.8342 69.4264 38.071 69.3563 38.2456 69.2316C38.4202 69.1068 38.5183 68.9376 38.5183 68.7611Z" fill="#133240"/>
<path id="Vector_4" d="M37.5873 60.1924C37.8342 60.1924 38.071 60.1223 38.2456 59.9975C38.4202 59.8728 38.5183 59.7035 38.5183 59.5271V59.1224C38.5183 58.9459 38.4202 58.7767 38.2456 58.6519C38.071 58.5271 37.8342 58.457 37.5873 58.457C37.3404 58.457 37.1035 58.5271 36.9289 58.6519C36.7543 58.7767 36.6562 58.9459 36.6562 59.1224V59.5271C36.6562 59.7035 36.7543 59.8728 36.9289 59.9975C37.1035 60.1223 37.3404 60.1924 37.5873 60.1924Z" fill="#133240"/>
<path id="Vector_5" d="M32.9807 77H39.1379C39.3879 76.9952 39.6252 76.9207 39.7992 76.7924C39.9733 76.6641 40.0701 76.4923 40.069 76.3136V74.1169H59.931V76.3136C59.9299 76.4923 60.0267 76.6641 60.2008 76.7924C60.3748 76.9207 60.6121 76.9952 60.8621 77H67.0193C67.2745 76.9966 67.5181 76.9236 67.7004 76.796C67.8827 76.6684 67.9899 76.4958 68 76.3136V46.2931C67.988 45.5242 67.5527 44.7896 66.7883 44.2483C66.0239 43.707 64.992 43.4027 63.9159 43.4012H56.3621V42.6443C57.7111 42.4928 58.9391 41.9999 59.8221 41.2554C60.705 40.511 61.1843 39.5646 61.1724 38.5887V38.275C61.3356 38.1986 61.4883 38.1114 61.6288 38.0146C61.9176 37.8084 62.138 37.5584 62.2738 37.2833C62.4096 37.0081 62.4574 36.7147 62.4136 36.4246C62.3698 36.1345 62.2356 35.8551 62.0208 35.6069C61.806 35.3588 61.5161 35.1482 61.1724 34.9906V29.158C61.3361 29.0812 61.4894 28.9936 61.6303 28.8965C61.8843 28.7153 62.0857 28.5001 62.2228 28.263C62.36 28.026 62.4301 27.772 62.4293 27.5155C62.4331 27.1881 62.3195 26.8654 62.0995 26.5781C61.8795 26.2909 61.5604 26.0486 61.1724 25.8744V25.3477C61.1735 24.464 60.6852 23.6159 59.8142 22.9886C58.9431 22.3614 57.76 22.0059 56.5234 22H43.4766C42.24 22.0059 41.0569 22.3614 40.1858 22.9886C39.3148 23.6159 38.8265 24.464 38.8276 25.3477V25.874C38.664 25.9505 38.5107 26.0378 38.3697 26.1346C38.0812 26.3412 37.8612 26.5913 37.7257 26.8666C37.5902 27.1419 37.5426 27.4354 37.5865 27.7255C37.6305 28.0156 37.7647 28.295 37.9795 28.5432C38.1942 28.7914 38.484 29.0021 38.8276 29.1599V34.9911C38.6639 35.068 38.5106 35.1556 38.3697 35.2529C38.0813 35.4594 37.8612 35.7094 37.7257 35.9846C37.5902 36.2598 37.5427 36.5532 37.5866 36.8433C37.6305 37.1333 37.7648 37.4126 37.9795 37.6608C38.1943 37.9089 38.484 38.1195 38.8276 38.2771V38.5887C38.8157 39.5646 39.2949 40.511 40.1779 41.2554C41.0609 41.9999 42.2889 42.4928 43.6379 42.6443V43.4012H36.0841C35.008 43.4027 33.9761 43.707 33.2117 44.2483C32.4473 44.7896 32.012 45.5242 32 46.2931V76.3136C32.0101 76.4958 32.1173 76.6684 32.2996 76.796C32.4819 76.9236 32.7255 76.9966 32.9807 77ZM40.6897 25.3477C40.688 24.8168 40.9799 24.3069 41.5019 23.9291C42.0239 23.5513 42.7336 23.3362 43.4766 23.3306H56.5234C57.2664 23.3362 57.9761 23.5513 58.4981 23.9291C59.0201 24.3069 59.312 24.8168 59.3103 25.3477V25.5484H40.6897V25.3477ZM39.6823 27.0762C39.7848 27.001 39.9114 26.9446 40.0511 26.9121C40.1317 26.8918 40.2163 26.8806 40.3017 26.879H59.6983C59.7129 26.879 59.7274 26.8859 59.7448 26.8865C59.9678 26.8971 60.177 26.9675 60.3304 27.0835C60.4839 27.1996 60.5704 27.3528 60.5725 27.5125C60.5721 27.6452 60.5131 27.7743 60.4039 27.8816C60.2947 27.9888 60.1409 28.0687 59.9644 28.1098C59.9616 28.1103 59.959 28.0903 59.956 28.0909C59.8712 28.1032 59.7842 28.1059 59.6983 28.0988H40.3017C40.2132 28.1062 40.1236 28.103 40.0365 28.0895C39.8616 28.0507 39.7084 27.9731 39.599 27.8681C39.4897 27.763 39.4298 27.6359 39.4281 27.505C39.4281 27.425 39.4506 27.3458 39.4942 27.2721C39.5379 27.1985 39.6019 27.1318 39.6823 27.0762ZM59.3103 29.4294V30.871H40.6897V29.4294H59.3103ZM40.3017 37.3024C40.21 37.2949 40.1205 37.2772 40.0365 37.2499C39.8599 37.2065 39.7065 37.1249 39.5976 37.0166C39.4886 36.9082 39.4294 36.7783 39.4281 36.6449C39.4281 36.4777 39.5202 36.3172 39.6846 36.1982C39.7852 36.1188 39.9108 36.0576 40.0511 36.0197C40.1307 35.9946 40.2152 35.9784 40.3017 35.9718H43.2121C43.4591 35.9718 43.6959 35.9017 43.8705 35.7769C44.0451 35.6521 44.1432 35.4829 44.1432 35.3065C44.1432 35.13 44.0451 34.9608 43.8705 34.836C43.6959 34.7112 43.4591 34.6411 43.2121 34.6411H40.6897V32.2016H59.3103V34.6411H47.3417C47.0948 34.6411 46.858 34.7112 46.6834 34.836C46.5088 34.9608 46.4107 35.13 46.4107 35.3065C46.4107 35.4829 46.5088 35.6521 46.6834 35.7769C46.858 35.9017 47.0948 35.9718 47.3417 35.9718H59.6983C59.7138 35.9718 59.7284 35.9908 59.7448 35.9914C59.9688 36.0036 60.1782 36.0754 60.3315 36.1927C60.4848 36.31 60.5708 36.4642 60.5725 36.6247C60.5727 36.7912 60.4805 36.951 60.3162 37.0691C60.2171 37.1482 60.0939 37.2099 59.956 37.2494C59.8746 37.2768 59.7876 37.2947 59.6983 37.3024H40.3017ZM40.6834 38.6331H59.3166C59.3166 40.0746 57.5737 41.3897 55.4303 41.3897C55.3096 41.3872 55.1895 41.4019 55.077 41.4331C54.9645 41.4642 54.8618 41.5111 54.7751 41.5711C54.6883 41.631 54.6192 41.7027 54.5718 41.782C54.5245 41.8614 54.4998 41.9466 54.4992 42.0329V43.4012H45.5V42.0329C45.4995 41.9466 45.4748 41.8614 45.4274 41.782C45.38 41.7027 45.3109 41.631 45.2242 41.5711C45.1374 41.5111 45.0347 41.4642 44.9222 41.4331C44.8097 41.4019 44.6896 41.3872 44.569 41.3897C42.4263 41.3897 40.6834 40.0746 40.6834 38.6331ZM33.8621 46.2931C33.8735 45.877 34.1124 45.4806 34.5278 45.1888C34.9431 44.897 35.5017 44.733 36.0841 44.7319H63.9159C64.4983 44.733 65.0569 44.897 65.4722 45.1888C65.8876 45.4806 66.1265 45.877 66.1379 46.2931V55.4879H60.8621V48.9833C60.8621 47.8827 59.6153 46.9496 58.0752 46.9496H41.9248C40.3847 46.9496 39.1379 47.8827 39.1379 48.9833V55.4879H33.8621V46.2931ZM45.1384 51.2742H47.1743C47.4212 51.2742 47.658 51.2041 47.8327 51.0793C48.0073 50.9546 48.1053 50.7853 48.1053 50.6089C48.1053 50.4324 48.0073 50.2632 47.8327 50.1384C47.658 50.0136 47.4212 49.9435 47.1743 49.9435H47.0517V48.2802H52.9483V49.9435H52.8257C52.5788 49.9435 52.3419 50.0136 52.1673 50.1384C51.9927 50.2632 51.8947 50.4324 51.8947 50.6089C51.8947 50.7853 51.9927 50.9546 52.1673 51.0793C52.3419 51.2041 52.5788 51.2742 52.8257 51.2742H54.8615C55.1085 51.2742 55.3453 51.2041 55.5199 51.0793C55.6945 50.9546 55.7926 50.7853 55.7926 50.6089C55.7926 50.4324 55.6945 50.2632 55.5199 50.1384C55.3453 50.0136 55.1085 49.9435 54.8615 49.9435H54.8103V48.2802H58.0752C58.3266 48.2892 58.5635 48.3674 58.7359 48.4985C58.9084 48.6296 59.003 48.8034 59 48.9833V55.4879H41V48.9833C40.997 48.8034 41.0916 48.6296 41.2641 48.4985C41.4365 48.3674 41.6734 48.2892 41.9248 48.2802H45.1897V49.9435H45.1384C44.8915 49.9435 44.6547 50.0136 44.4801 50.1384C44.3055 50.2632 44.2074 50.4324 44.2074 50.6089C44.2074 50.7853 44.3055 50.9546 44.4801 51.0793C44.6547 51.2041 44.8915 51.2742 45.1384 51.2742ZM33.8621 56.8185H66.1379V75.6694H61.7931V73.4572C61.7934 73.2801 61.6956 73.1102 61.5212 72.9845C61.3468 72.8588 61.1098 72.7875 60.8621 72.7863H39.1379C38.8902 72.7875 38.6532 72.8588 38.4788 72.9845C38.3044 73.1102 38.2066 73.2801 38.2069 73.4572V75.6694H33.8621V56.8185Z" fill="#133240"/>
</g>
</g>
</g>
</g>
</svg>
