<svg width="100" height="100" viewBox="0 0 100 100" fill="none" xmlns="http://www.w3.org/2000/svg">
<g id="Frame 6">
<g id="icon ">
<mask id="mask0_843_2947" style="mask-type:alpha" maskUnits="userSpaceOnUse" x="0" y="0" width="100" height="100">
<circle id="Ellipse 13" cx="50" cy="50" r="50" fill="#56A7DE"/>
</mask>
<g mask="url(#mask0_843_2947)">
<circle id="Ellipse 14" cx="50" cy="50" r="50" fill="#56A7DE" fill-opacity="0.1"/>
<g id="Group">
<path id="Vector" d="M63.3286 43.6219C61.3493 38.4234 55.993 34.9297 50.0024 34.9297C42.2166 34.9297 35.8828 40.7554 35.8828 47.9162C35.8828 50.8759 36.9385 53.6635 38.9229 55.9673C39.3581 56.4886 39.839 56.9839 40.3531 57.4377C42.1157 59.4627 43.3625 61.6318 44.1201 66.1092C44.1965 66.5596 44.6192 66.893 45.1157 66.893H55.132C55.6292 66.893 56.0513 66.5596 56.1276 66.1092C56.8816 61.6537 58.0682 59.5111 59.735 57.5316C62.5603 55.0861 64.1796 51.642 64.1796 48.0717C64.1796 46.5874 63.9079 45.1303 63.375 43.7428L63.3286 43.6219ZM58.3023 56.2253C58.2629 56.2599 58.2272 56.2956 58.194 56.3348C56.1013 58.8027 55.0049 61.2177 54.2779 65.0379H45.9698C45.1201 60.6492 43.7137 58.3201 41.8822 56.2282C41.8546 56.196 41.824 56.166 41.792 56.1378C41.3355 55.7381 40.9085 55.3015 40.5127 54.8264C38.8027 52.844 37.8985 50.4532 37.8985 47.9162C37.8985 41.7777 43.328 36.7837 50.0024 36.7837C55.1389 36.7837 59.7306 39.7774 61.4276 44.2341L61.4739 44.3574C61.9317 45.549 62.1646 46.7988 62.1646 48.0717C62.1646 51.1541 60.7569 54.1266 58.3023 56.2253Z" fill="#133240"/>
<path id="Vector_2" d="M55.1561 68.0742H45.0935C44.5368 68.0742 44.0859 68.4895 44.0859 69.0009C44.0859 69.5135 44.5374 69.9276 45.0935 69.9276H55.1561C55.7127 69.9276 56.1636 69.5129 56.1636 69.0009C56.1642 68.4895 55.7127 68.0742 55.1561 68.0742Z" fill="#133240"/>
<path id="Vector_3" d="M54.3948 71.1094H45.8513C45.2946 71.1094 44.8438 71.5246 44.8438 72.0361C44.8438 72.5475 45.2952 72.9628 45.8513 72.9628H54.3948C54.9508 72.9628 55.4017 72.5475 55.4017 72.0361C55.4017 71.5246 54.9502 71.1094 54.3948 71.1094Z" fill="#133240"/>
<path id="Vector_4" d="M52.6981 74.1484H47.5472C46.9899 74.1484 46.5391 74.5631 46.5391 75.0751C46.5391 75.5872 46.9905 76.0018 47.5472 76.0018H52.6981C53.2548 76.0018 53.7056 75.5866 53.7056 75.0751C53.7056 74.5631 53.2542 74.1484 52.6981 74.1484Z" fill="#133240"/>
<path id="Vector_5" d="M50.0928 33.9984C50.6489 33.9984 51.0997 33.5838 51.0997 33.0723V24.9267C51.0997 24.4147 50.6482 24 50.0928 24C49.5374 24 49.0859 24.4153 49.0859 24.9267V33.0723C49.0859 33.5838 49.5374 33.9984 50.0928 33.9984Z" fill="#133240"/>
<path id="Vector_6" d="M74.9891 47.0742H66.1331C65.5758 47.0742 65.125 47.4901 65.125 48.0009C65.125 48.5118 65.5765 48.927 66.1331 48.927H74.9891C75.5452 48.927 75.996 48.5118 75.996 48.0009C75.996 47.4901 75.5452 47.0742 74.9891 47.0742Z" fill="#133240"/>
<path id="Vector_7" d="M33.8629 46.8984H25.0075C24.4508 46.8984 24 47.3137 24 47.8251C24 48.3366 24.4515 48.7518 25.0075 48.7518H33.8635C34.4202 48.7518 34.8704 48.3366 34.8704 47.8251C34.8704 47.3137 34.4195 46.8984 33.8629 46.8984Z" fill="#133240"/>
<path id="Vector_8" d="M37.946 38.0126C38.1427 38.1935 38.4013 38.2845 38.6593 38.2845C38.9166 38.2845 39.1746 38.194 39.3712 38.0132C39.7651 37.6509 39.7651 37.0646 39.3718 36.7029L33.1101 30.9434C32.7169 30.5812 32.0788 30.5817 31.6856 30.9429C31.2923 31.3051 31.2923 31.8914 31.6856 32.2531L37.946 38.0126Z" fill="#133240"/>
<path id="Vector_9" d="M61.4761 38.4092C61.7335 38.4092 61.9914 38.3187 62.1881 38.1373L68.4498 32.3784C68.843 32.0167 68.843 31.4298 68.4498 31.0681C68.0572 30.7065 67.4191 30.7065 67.0259 31.0681L60.7641 36.8276C60.3703 37.1893 60.3703 37.7756 60.7641 38.1373C60.9601 38.3187 61.2181 38.4092 61.4761 38.4092Z" fill="#133240"/>
</g>
</g>
</g>
</g>
</svg>
