<svg width="100" height="100" viewBox="0 0 100 100" fill="none" xmlns="http://www.w3.org/2000/svg">
<g id="icon ">
<mask id="mask0_843_2934" style="mask-type:alpha" maskUnits="userSpaceOnUse" x="0" y="0" width="100" height="100">
<circle id="Ellipse 13" cx="50" cy="50" r="50" fill="#56A7DE"/>
</mask>
<g mask="url(#mask0_843_2934)">
<circle id="Ellipse 14" cx="50" cy="50" r="50" fill="#56A7DE" fill-opacity="0.1"/>
<g id="Group">
<path id="Vector" d="M55.0207 32H26.0621C24.8966 32 24 33.0811 24 34.4865V59.6757C24 61.0811 24.8966 62.1622 26.0621 62.1622H35.9241V65.7297H34.131C33.5931 65.7297 33.2345 66.1622 33.2345 66.8108C33.2345 67.4595 33.5931 67.8919 34.131 67.8919H46.9517C47.4897 67.8919 47.8483 67.4595 47.8483 66.8108C47.8483 66.1622 47.4897 65.7297 46.9517 65.7297H45.1586V62.1622H55.0207C56.1862 62.1622 57.0828 61.0811 57.0828 59.6757V34.4865C57.1724 33.0811 56.1862 32 55.0207 32ZM26.0621 34.1622H55.0207C55.2 34.1622 55.2897 34.3784 55.2897 34.4865V54.7027H25.7931V34.4865C25.7931 34.2703 25.9724 34.1622 26.0621 34.1622ZM43.3655 65.7297H37.8069V62.1622H43.3655V65.7297ZM55.0207 60H26.0621C25.9724 60 25.7931 59.8919 25.7931 59.6757V56.8649H55.3793V59.6757C55.3793 59.8919 55.2 60 55.0207 60Z" fill="#133240"/>
<path id="Vector_2" d="M73.9341 32H61.3824C60.2169 32 59.3203 33.0811 59.3203 34.4865V65.5135C59.3203 66.9189 60.2169 68 61.3824 68H73.9341C75.0996 68 75.9962 66.9189 75.9962 65.5135V34.4865C75.9962 33.0811 75.0996 32 73.9341 32ZM74.2031 65.4054C74.2031 65.6216 74.1134 65.7297 73.9341 65.7297H61.3824C61.2031 65.7297 61.1134 65.6216 61.1134 65.4054V34.4865C61.1134 34.2703 61.2031 34.1622 61.3824 34.1622H73.9341C74.1134 34.1622 74.2031 34.2703 74.2031 34.4865V65.4054Z" fill="#133240"/>
<path id="Vector_3" d="M71.5131 38.5938H63.8028C63.2649 38.5938 62.9062 39.0262 62.9062 39.6748C62.9062 40.3235 63.2649 40.7559 63.8028 40.7559H71.5131C72.0511 40.7559 72.4097 40.3235 72.4097 39.6748C72.4097 39.0262 71.9614 38.5938 71.5131 38.5938Z" fill="#133240"/>
<path id="Vector_4" d="M71.5131 43.3516H63.8028C63.2649 43.3516 62.9062 43.784 62.9062 44.4326C62.9062 45.0813 63.2649 45.5137 63.8028 45.5137H71.5131C72.0511 45.5137 72.4097 45.0813 72.4097 44.4326C72.4097 43.784 71.9614 43.3516 71.5131 43.3516Z" fill="#133240"/>
<path id="Vector_5" d="M69.7242 54.8112L68.3794 53.9464C67.9311 53.622 67.3932 53.622 66.9449 53.9464L65.6001 54.8112C65.1518 55.1356 64.8828 55.6761 64.8828 56.3247V58.1626C64.8828 58.8112 65.1518 59.3518 65.6001 59.6761L66.9449 60.541C67.2138 60.6491 67.3932 60.7572 67.6621 60.7572C67.9311 60.7572 68.2001 60.6491 68.3794 60.541L69.7242 59.6761C70.1725 59.3518 70.4414 58.8112 70.4414 58.1626V56.4329C70.4414 55.7842 70.1725 55.1356 69.7242 54.8112ZM68.6483 57.9464L67.6621 58.595L66.6759 57.9464V56.6491L67.6621 56.0004L68.6483 56.6491V57.9464Z" fill="#133240"/>
</g>
</g>
</g>
</svg>
