<svg width="100" height="100" viewBox="0 0 100 100" fill="none" xmlns="http://www.w3.org/2000/svg">
<g id="icon ">
<mask id="mask0_861_1326" style="mask-type:alpha" maskUnits="userSpaceOnUse" x="0" y="0" width="100" height="100">
<circle id="Ellipse 13" cx="50" cy="50" r="50" fill="#56A7DE"/>
</mask>
<g mask="url(#mask0_861_1326)">
<circle id="Ellipse 14" cx="50" cy="50" r="50" fill="#56A7DE" fill-opacity="0.1"/>
<g id="Group">
<path id="Vector" d="M74.8358 49.0122H30.9851V44.0754C30.9851 43.5304 31.5066 43.088 32.1493 43.088C32.7919 43.088 33.3134 43.5304 33.3134 44.0754V45.4116C33.3134 45.9566 33.835 46.399 34.4776 46.399C35.1202 46.399 35.6418 45.9566 35.6418 45.4116V44.0754C35.6418 42.4416 34.0756 41.1133 32.1493 41.1133C30.2229 41.1133 28.6567 42.4416 28.6567 44.0754V49.0122H25.1642C24.5216 49.0122 24 49.4545 24 49.9996V75.0129C24 75.5579 24.5216 76.0002 25.1642 76.0002H74.8358C75.4784 76.0002 76 75.5579 76 75.0129V49.9996C76 49.4545 75.4784 49.0122 74.8358 49.0122ZM73.6716 56.9111H48.0597V50.9869H73.6716V56.9111ZM45.7313 50.9869V62.1771H26.3284V50.9869H45.7313ZM26.3284 64.1518H45.7313V74.0255H26.3284V64.1518ZM48.0597 74.0255V58.8859H73.6716V74.0255H48.0597Z" fill="#133240"/>
<path id="Vector_2" d="M49.9992 43.0891H71.7306C72.1171 43.0891 72.4772 42.9258 72.6945 42.6546C72.9118 42.3834 72.9537 42.0385 72.8109 41.7344L69.7064 35.152C69.5295 34.7768 69.1011 34.5306 68.6261 34.5306H68.238V24.9874C68.238 24.4423 67.7165 24 67.0738 24H54.6559C54.0133 24 53.4917 24.4423 53.4917 24.9874V34.5319H53.1037C52.6272 34.5319 52.1987 34.7781 52.0233 35.1533L48.9189 41.7357C48.776 42.0398 48.8195 42.3848 49.0353 42.656C49.251 42.9272 49.6127 43.0891 49.9992 43.0891ZM55.8201 25.9747H65.9097V34.5319H55.8201V25.9747ZM53.8922 36.5066H67.8375L70.0107 41.1143H51.7191L53.8922 36.5066Z" fill="#133240"/>
<path id="Vector_3" d="M53.1017 54.9357H56.2062C56.8488 54.9357 57.3703 54.4933 57.3703 53.9483C57.3703 53.4033 56.8488 52.9609 56.2062 52.9609H53.1017C52.4591 52.9609 51.9375 53.4033 51.9375 53.9483C51.9375 54.4933 52.4591 54.9357 53.1017 54.9357Z" fill="#133240"/>
<path id="Vector_4" d="M65.5236 54.9357H68.628C69.2707 54.9357 69.7922 54.4933 69.7922 53.9483C69.7922 53.4033 69.2707 52.9609 68.628 52.9609H65.5236C64.8809 52.9609 64.3594 53.4033 64.3594 53.9483C64.3594 54.4933 64.8809 54.9357 65.5236 54.9357Z" fill="#133240"/>
<path id="Vector_5" d="M34.4767 56.2521H37.5812C38.2238 56.2521 38.7453 55.8097 38.7453 55.2647C38.7453 54.7197 38.2238 54.2773 37.5812 54.2773H34.4767C33.8341 54.2773 33.3125 54.7197 33.3125 55.2647C33.3125 55.8097 33.8341 56.2521 34.4767 56.2521Z" fill="#133240"/>
<path id="Vector_6" d="M37.5812 67.4453H34.4767C33.8341 67.4453 33.3125 67.8877 33.3125 68.4327C33.3125 68.9777 33.8341 69.42 34.4767 69.42H37.5812C38.2238 69.42 38.7453 68.9777 38.7453 68.4327C38.7453 67.8877 38.2238 67.4453 37.5812 67.4453Z" fill="#133240"/>
</g>
</g>
</g>
</svg>
