<svg width="100" height="100" viewBox="0 0 100 100" fill="none" xmlns="http://www.w3.org/2000/svg">
<g id="Frame 3">
<g id="icon ">
<mask id="mask0_843_2904" style="mask-type:alpha" maskUnits="userSpaceOnUse" x="0" y="0" width="100" height="100">
<circle id="Ellipse 13" cx="50" cy="50" r="50" fill="#56A7DE"/>
</mask>
<g mask="url(#mask0_843_2904)">
<circle id="Ellipse 14" cx="50" cy="50" r="50" fill="#56A7DE" fill-opacity="0.1"/>
<g id="Group 1000010479">
<path id="Vector" d="M72.0293 70.4682H27.9707C26.918 70.467 25.9087 70.0749 25.1643 69.3781C24.4199 68.6812 24.0012 67.7365 24 66.751V45.4243C24.0012 44.4388 24.4199 43.4941 25.1643 42.7972C25.9087 42.1004 26.918 41.7083 27.9707 41.707H72.0293C73.082 41.7083 74.0913 42.1004 74.8357 42.7972C75.5801 43.4941 75.9988 44.4388 76 45.4243V66.751C75.9988 67.7365 75.5801 68.6812 74.8357 69.3781C74.0913 70.0749 73.082 70.467 72.0293 70.4682ZM27.9707 43.9194C27.5446 43.9199 27.136 44.0787 26.8347 44.3608C26.5335 44.6429 26.364 45.0254 26.3636 45.4243V66.751C26.364 67.1499 26.5335 67.5324 26.8347 67.8145C27.136 68.0966 27.5446 68.2553 27.9707 68.2558H72.0293C72.4554 68.2553 72.864 68.0966 73.1653 67.8145C73.4665 67.5324 73.636 67.1499 73.6364 66.751V45.4243C73.636 45.0254 73.4665 44.6429 73.1653 44.3608C72.864 44.0787 72.4554 43.9199 72.0293 43.9194H27.9707Z" fill="#133240"/>
<path id="Vector_2" d="M40.687 39.4954C40.4707 39.4952 40.2586 39.4394 40.0738 39.3342C39.889 39.2289 39.7386 39.0783 39.639 38.8985C39.5394 38.7188 39.4943 38.517 39.5088 38.315C39.5233 38.113 39.5967 37.9185 39.721 37.7529C39.878 37.5444 40.0453 37.3478 40.2126 37.1522C40.5055 36.8801 40.7379 36.5564 40.8965 36.1998C41.0552 35.8433 41.1369 35.4609 41.1371 35.0746C41.1373 34.6884 41.0558 34.3059 40.8975 33.9493C40.7391 33.5926 40.507 33.2688 40.2144 32.9964C39.288 32.0547 38.7737 30.8215 38.7734 29.5414C38.7732 28.2613 39.2871 27.0279 40.2132 26.0859C40.5771 25.7203 40.8547 25.2871 41.028 24.8144C41.0692 24.6736 41.1397 24.5417 41.2355 24.4265C41.3314 24.3113 41.4506 24.215 41.5864 24.1432C41.7223 24.0713 41.8719 24.0254 42.0268 24.0079C42.1817 23.9905 42.3387 24.0019 42.4888 24.0416C42.639 24.0812 42.7792 24.1483 42.9015 24.2389C43.0239 24.3295 43.1258 24.4419 43.2014 24.5696C43.2771 24.6973 43.325 24.8378 43.3424 24.9829C43.3598 25.128 43.3463 25.2749 43.3028 25.4151C43.0501 26.1743 42.6262 26.8738 42.0598 27.4665C41.7662 27.7371 41.5334 28.0599 41.3749 28.4159C41.2165 28.7719 41.1356 29.1539 41.1371 29.5396C41.1332 29.9257 41.2129 30.3086 41.3715 30.6651C41.5301 31.0216 41.7643 31.3443 42.0598 31.6137C42.987 32.5576 43.5013 33.7932 43.5008 35.0754C43.5002 36.3576 42.9849 37.5929 42.0569 38.5361C41.9202 38.696 41.7828 38.8548 41.6553 39.0255C41.5461 39.1708 41.401 39.2894 41.2325 39.3712C41.064 39.4529 40.8769 39.4956 40.687 39.4954Z" fill="#133240"/>
<path id="Vector_3" d="M58.4136 39.4954C58.1973 39.4952 57.9852 39.4394 57.8004 39.3342C57.6156 39.2289 57.4652 39.0783 57.3656 38.8985C57.2659 38.7188 57.2209 38.517 57.2354 38.315C57.2498 38.113 57.3232 37.9185 57.4476 37.7529C57.6045 37.5444 57.7719 37.3478 57.9392 37.1522C58.232 36.8801 58.4644 36.5564 58.6231 36.1998C58.7817 35.8433 58.8635 35.4609 58.8637 35.0746C58.8638 34.6884 58.7824 34.3059 58.624 33.9493C58.4657 33.5926 58.2335 33.2688 57.9409 32.9964C57.0146 32.0547 56.5002 30.8215 56.5 29.5414C56.4998 28.2613 57.0137 27.0279 57.9398 26.0859C58.3037 25.7203 58.5813 25.2871 58.7546 24.8144C58.7957 24.6736 58.8662 24.5417 58.9621 24.4265C59.0579 24.3113 59.1772 24.215 59.313 24.1432C59.4488 24.0713 59.5985 24.0254 59.7533 24.0079C59.9082 23.9905 60.0653 24.0019 60.2154 24.0416C60.3655 24.0812 60.5058 24.1483 60.6281 24.2389C60.7504 24.3295 60.8523 24.4419 60.928 24.5696C61.0037 24.6973 61.0516 24.8378 61.069 24.9829C61.0864 25.128 61.0729 25.2749 61.0293 25.4151C60.7766 26.1743 60.3528 26.8738 59.7864 27.4665C59.4928 27.7371 59.2599 28.0599 59.1015 28.4159C58.943 28.7719 58.8622 29.1539 58.8637 29.5396C58.8598 29.9257 58.9395 30.3086 59.0981 30.6651C59.2567 31.0216 59.4908 31.3443 59.7864 31.6137C60.7135 32.5576 61.2279 33.7932 61.2273 35.0754C61.2268 36.3576 60.7114 37.5929 59.7835 38.5361C59.6467 38.696 59.5094 38.8548 59.3819 39.0255C59.2726 39.1708 59.1276 39.2894 58.9591 39.3712C58.7905 39.4529 58.6034 39.4956 58.4136 39.4954Z" fill="#133240"/>
<path id="Vector_4" d="M48.9604 39.4954C48.7441 39.4952 48.532 39.4394 48.3473 39.3342C48.1625 39.2289 48.0121 39.0783 47.9124 38.8985C47.8128 38.7188 47.7678 38.517 47.7822 38.315C47.7967 38.113 47.8701 37.9185 47.9944 37.7529C48.1514 37.5444 48.3187 37.3478 48.4861 37.1522C48.7789 36.8801 49.0113 36.5564 49.17 36.1998C49.3286 35.8433 49.4104 35.4609 49.4105 35.0746C49.4107 34.6884 49.3293 34.3059 49.1709 33.9493C49.0125 33.5926 48.7804 33.2688 48.4878 32.9964C47.5614 32.0547 47.0471 30.8215 47.0469 29.5414C47.0467 28.2613 47.5606 27.0279 48.4866 26.0859C48.8505 25.7203 49.1282 25.2871 49.3014 24.8144C49.3426 24.6736 49.4131 24.5417 49.509 24.4265C49.6048 24.3113 49.7241 24.215 49.8599 24.1432C49.9957 24.0713 50.1453 24.0254 50.3002 24.0079C50.4551 23.9905 50.6121 24.0019 50.7623 24.0416C50.9124 24.0812 51.0527 24.1483 51.175 24.2389C51.2973 24.3295 51.3992 24.4419 51.4749 24.5696C51.5506 24.6973 51.5985 24.8378 51.6159 24.9829C51.6332 25.128 51.6198 25.2749 51.5762 25.4151C51.3235 26.1743 50.8996 26.8738 50.3332 27.4665C50.0396 27.7371 49.8068 28.0599 49.6483 28.4159C49.4899 28.7719 49.409 29.1539 49.4105 29.5396C49.4066 29.9257 49.4864 30.3086 49.645 30.6651C49.8036 31.0216 50.0377 31.3443 50.3333 31.6137C51.2604 32.5576 51.7747 33.7932 51.7742 35.0754C51.7737 36.3576 51.2583 37.5929 50.3304 38.5361C50.1936 38.696 50.0563 38.8548 49.9288 39.0255C49.8195 39.1708 49.6745 39.2894 49.5059 39.3712C49.3374 39.4529 49.1503 39.4956 48.9604 39.4954Z" fill="#133240"/>
<path id="Vector_5" d="M46.4553 66.043C46.3 66.043 46.1463 66.0144 46.0029 65.9588C45.8595 65.9033 45.7292 65.8218 45.6195 65.719C45.5097 65.6163 45.4227 65.4944 45.3633 65.3601C45.3039 65.2259 45.2734 65.082 45.2734 64.9368V49.45C45.2734 49.1566 45.3979 48.8752 45.6196 48.6677C45.8412 48.4603 46.1418 48.3438 46.4553 48.3438C46.7687 48.3438 47.0693 48.4603 47.2909 48.6677C47.5126 48.8752 47.6371 49.1566 47.6371 49.45V64.9368C47.6371 65.082 47.6066 65.2259 47.5472 65.3601C47.4878 65.4944 47.4008 65.6163 47.291 65.719C47.1813 65.8218 47.051 65.9033 46.9076 65.9588C46.7642 66.0144 46.6105 66.043 46.4553 66.043Z" fill="#133240"/>
<path id="Vector_6" d="M53.549 66.043C53.3938 66.043 53.2401 66.0144 53.0967 65.9588C52.9533 65.9033 52.823 65.8218 52.7132 65.719C52.6035 65.6163 52.5164 65.4944 52.4571 65.3601C52.3977 65.2259 52.3671 65.082 52.3672 64.9368V49.45C52.3672 49.1566 52.4917 48.8752 52.7133 48.6677C52.935 48.4603 53.2356 48.3438 53.549 48.3438C53.8624 48.3438 54.163 48.4603 54.3847 48.6677C54.6063 48.8752 54.7308 49.1566 54.7308 49.45V64.9368C54.7309 65.082 54.7003 65.2259 54.6409 65.3601C54.5816 65.4944 54.4945 65.6163 54.3848 65.719C54.275 65.8218 54.1447 65.9033 54.0013 65.9588C53.8579 66.0144 53.7042 66.043 53.549 66.043Z" fill="#133240"/>
<path id="Vector_7" d="M39.3615 66.043C39.2063 66.043 39.0526 66.0144 38.9092 65.9588C38.7658 65.9033 38.6355 65.8218 38.5257 65.719C38.416 65.6163 38.3289 65.4944 38.2696 65.3601C38.2102 65.2259 38.1796 65.082 38.1797 64.9368V49.45C38.1797 49.1566 38.3042 48.8752 38.5258 48.6677C38.7475 48.4603 39.0481 48.3438 39.3615 48.3438C39.6749 48.3438 39.9755 48.4603 40.1972 48.6677C40.4188 48.8752 40.5433 49.1566 40.5433 49.45V64.9368C40.5434 65.082 40.5128 65.2259 40.4534 65.3601C40.3941 65.4944 40.307 65.6163 40.1973 65.719C40.0875 65.8218 39.9572 65.9033 39.8138 65.9588C39.6704 66.0144 39.5167 66.043 39.3615 66.043Z" fill="#133240"/>
<path id="Vector_8" d="M32.2756 66.043C32.1204 66.043 31.9667 66.0144 31.8233 65.9588C31.6799 65.9033 31.5496 65.8218 31.4398 65.719C31.3301 65.6163 31.243 65.4944 31.1836 65.3601C31.1243 65.2259 31.0937 65.082 31.0938 64.9368V49.45C31.0938 49.1566 31.2183 48.8752 31.4399 48.6677C31.6615 48.4603 31.9621 48.3438 32.2756 48.3438C32.589 48.3438 32.8896 48.4603 33.1112 48.6677C33.3329 48.8752 33.4574 49.1566 33.4574 49.45V64.9368C33.4574 65.082 33.4269 65.2259 33.3675 65.3601C33.3081 65.4944 33.2211 65.6163 33.1113 65.719C33.0016 65.8218 32.8713 65.9033 32.7279 65.9588C32.5845 66.0144 32.4308 66.043 32.2756 66.043Z" fill="#133240"/>
<path id="Vector_9" d="M60.6349 66.043C60.4797 66.043 60.326 66.0144 60.1826 65.9588C60.0392 65.9033 59.9089 65.8218 59.7992 65.719C59.6894 65.6163 59.6024 65.4944 59.543 65.3601C59.4836 65.2259 59.4531 65.082 59.4531 64.9368V49.45C59.4531 49.1566 59.5776 48.8752 59.7993 48.6677C60.0209 48.4603 60.3215 48.3438 60.6349 48.3438C60.9484 48.3438 61.249 48.4603 61.4706 48.6677C61.6922 48.8752 61.8168 49.1566 61.8168 49.45V64.9368C61.8168 65.082 61.7863 65.2259 61.7269 65.3601C61.6675 65.4944 61.5805 65.6163 61.4707 65.719C61.361 65.8218 61.2307 65.9033 61.0873 65.9588C60.9439 66.0144 60.7902 66.043 60.6349 66.043Z" fill="#133240"/>
<path id="Vector_10" d="M67.7287 66.043C67.5735 66.043 67.4198 66.0144 67.2764 65.9588C67.133 65.9033 67.0027 65.8218 66.8929 65.719C66.7832 65.6163 66.6961 65.4944 66.6368 65.3601C66.5774 65.2259 66.5468 65.082 66.5469 64.9368V49.45C66.5469 49.1566 66.6714 48.8752 66.893 48.6677C67.1147 48.4603 67.4153 48.3438 67.7287 48.3438C68.0421 48.3438 68.3427 48.4603 68.5644 48.6677C68.786 48.8752 68.9105 49.1566 68.9105 49.45V64.9368C68.9106 65.082 68.88 65.2259 68.8206 65.3601C68.7613 65.4944 68.6742 65.6163 68.5645 65.719C68.4547 65.8218 68.3244 65.9033 68.181 65.9588C68.0376 66.0144 67.8839 66.043 67.7287 66.043Z" fill="#133240"/>
<path id="Vector_11" d="M31.0923 76.0012C30.1523 76.0003 29.2511 75.6503 28.5864 75.0282C27.9218 74.406 27.5479 73.5625 27.5469 72.6826V69.364C27.5468 69.2187 27.5774 69.0749 27.6368 68.9406C27.6961 68.8064 27.7832 68.6845 27.8929 68.5817C28.0027 68.479 28.133 68.3975 28.2764 68.3419C28.4198 68.2864 28.5735 68.2578 28.7287 68.2578H33.456C33.6112 68.2578 33.7649 68.2864 33.9083 68.3419C34.0517 68.3975 34.182 68.479 34.2917 68.5817C34.4015 68.6845 34.4885 68.8064 34.5479 68.9406C34.6073 69.0749 34.6378 69.2187 34.6378 69.364V72.6826C34.6368 73.5625 34.2629 74.406 33.5982 75.0282C32.9335 75.6503 32.0323 76.0003 31.0923 76.0012ZM29.9105 70.4702V72.6826C29.9105 72.976 30.035 73.2574 30.2567 73.4648C30.4783 73.6723 30.7789 73.7888 31.0923 73.7888C31.4058 73.7888 31.7064 73.6723 31.928 73.4648C32.1496 73.2574 32.2741 72.976 32.2741 72.6826V70.4702H29.9105Z" fill="#133240"/>
<path id="Vector_12" d="M68.9126 76.0012C67.9726 76.0003 67.0714 75.6503 66.4068 75.0282C65.7421 74.406 65.3682 73.5625 65.3672 72.6826V69.364C65.3671 69.2187 65.3977 69.0749 65.4571 68.9406C65.5164 68.8064 65.6035 68.6845 65.7132 68.5817C65.823 68.479 65.9533 68.3975 66.0967 68.3419C66.2401 68.2864 66.3938 68.2578 66.549 68.2578H71.2763C71.4315 68.2578 71.5852 68.2864 71.7286 68.3419C71.872 68.3975 72.0023 68.479 72.112 68.5817C72.2218 68.6845 72.3088 68.8064 72.3682 68.9406C72.4276 69.0749 72.4581 69.2187 72.4581 69.364V72.6826C72.4571 73.5625 72.0832 74.406 71.4185 75.0282C70.7538 75.6503 69.8526 76.0003 68.9126 76.0012ZM67.7308 70.4702V72.6826C67.7308 72.976 67.8553 73.2574 68.077 73.4648C68.2986 73.6723 68.5992 73.7888 68.9126 73.7888C69.2261 73.7888 69.5267 73.6723 69.7483 73.4648C69.9699 73.2574 70.0945 72.976 70.0945 72.6826V70.4702H67.7308Z" fill="#133240"/>
</g>
</g>
</g>
</g>
</svg>
